<?xml version="1.0" encoding="utf-8"?>
<!-- Generator: Adobe Illustrator 23.1.1, SVG Export Plug-In . SVG Version: 6.00 Build 0)  -->
<svg version="1.1" id="Capa_1" xmlns="http://www.w3.org/2000/svg" xmlns:xlink="http://www.w3.org/1999/xlink" x="0px" y="0px"
	 viewBox="0 0 120 120" style="enable-background:new 0 0 120 120;" xml:space="preserve">
<style type="text/css">
	.st0{fill:#333333;}
</style>
<g>
	<path class="st0" d="M24.9,30.7h26.8c1,0,1.6-0.7,1.6-1.6c0-1-0.7-1.6-1.6-1.6H24.9c-1,0-1.6,0.7-1.6,1.6
		C23.3,29.8,23.9,30.7,24.9,30.7z"/>
	<path class="st0" d="M19.6,27.4h-4.1c-1,0-1.6,0.7-1.6,1.6c0,1,0.7,1.6,1.6,1.6h4.1c1,0,1.6-0.7,1.6-1.6
		C21.3,28,20.5,27.4,19.6,27.4z"/>
	<path class="st0" d="M24.9,40.4h26.8c1,0,1.6-0.7,1.6-1.6c0-1-0.7-1.6-1.6-1.6H24.9c-1,0-1.6,0.7-1.6,1.6
		C23.3,39.5,23.9,40.4,24.9,40.4z"/>
	<path class="st0" d="M19.6,37.1h-4.1c-1,0-1.6,0.7-1.6,1.6c0,1,0.7,1.6,1.6,1.6h4.1c1,0,1.6-0.7,1.6-1.6
		C21.3,37.7,20.5,37.1,19.6,37.1z"/>
	<path class="st0" d="M24.9,49.9h26.8c1,0,1.6-0.7,1.6-1.6c0-1-0.7-1.6-1.6-1.6H24.9c-1,0-1.6,0.7-1.6,1.6S23.9,49.9,24.9,49.9z"/>
	<path class="st0" d="M19.6,46.6h-4.1c-1,0-1.6,0.7-1.6,1.6c0,1,0.7,1.6,1.6,1.6h4.1c1,0,1.6-0.7,1.6-1.6
		C21.3,47.4,20.5,46.6,19.6,46.6z"/>
	<path class="st0" d="M24.9,59.6h26.8c1,0,1.6-0.7,1.6-1.6c0-1-0.7-1.6-1.6-1.6H24.9c-1,0-1.6,0.7-1.6,1.6
		C23.3,58.8,23.9,59.6,24.9,59.6z"/>
	<path class="st0" d="M19.6,56.3h-4.1c-1,0-1.6,0.7-1.6,1.6c0,1,0.7,1.6,1.6,1.6h4.1c1,0,1.6-0.7,1.6-1.6
		C21.3,57,20.5,56.3,19.6,56.3z"/>
	<path class="st0" d="M40.4,66H24.7c-1,0-1.6,0.7-1.6,1.6s0.7,1.6,1.6,1.6h15.6c1,0,1.6-0.7,1.6-1.6C42,66.7,41.3,66,40.4,66z"/>
	<path class="st0" d="M19.6,66h-4.1c-1,0-1.6,0.7-1.6,1.6s0.7,1.6,1.6,1.6h4.1c1,0,1.6-0.7,1.6-1.6C21.3,66.7,20.5,66,19.6,66z"/>
	<path class="st0" d="M98.6,50.7h13.2c1,0,1.6-0.7,1.6-1.6V37.7c0-1-0.7-1.6-1.6-1.6H98.6c-1,0-1.6,0.7-1.6,1.6v3.9H86.7
		c-4.6,0-8.4,3.8-8.4,8.4v23h-9c-0.7-5.1-4.1-9.4-8.7-11V19c0-2.1-1.6-3.8-3.8-3.8h-8.2v-1.6c0-1-0.7-1.6-1.6-1.6h-3
		c-0.7-2.5-3-4.3-5.8-4.3h-9.4c-2.6,0-4.9,1.8-5.8,4.3h-3c-1,0-1.6,0.7-1.6,1.6v1.6h-8.2c-2.1,0-3.8,1.6-3.8,3.8v56.4
		c0,2.1,1.6,3.8,3.8,3.8h32.9c1.8,5.3,6.9,9,12.8,9c6.9,0,12.7-5.3,13.5-11.8h9v23c0,4.6,3.8,8.4,8.4,8.4H97v3.9
		c0,1,0.7,1.6,1.6,1.6h13.2c1,0,1.6-0.7,1.6-1.6v-11.3c0-1-0.7-1.6-1.6-1.6H98.7c-1,0-1.6,0.7-1.6,1.6v3.9H86.9
		c-2.8,0-5.1-2.3-5.1-5.1v-23h15.3v3.9c0,1,0.7,1.6,1.6,1.6h13.2c1,0,1.6-0.7,1.6-1.6V68.8c0-1-0.7-1.6-1.6-1.6H98.7
		c-1,0-1.6,0.7-1.6,1.6v3.9H81.8v-23c0-2.8,2.3-5.1,5.1-5.1h10.2v3.9C96.9,49.9,97.7,50.7,98.6,50.7L98.6,50.7z M21.8,15h2.8
		c1,0,1.6-0.7,1.6-1.6c0-1.5,1.2-2.6,2.6-2.6h9.4c1.5,0,2.6,1.2,2.6,2.6c0,1,0.7,1.6,1.6,1.6h2.8v3.1H21.7L21.8,15z M10.3,75.9
		c-0.3,0-0.5-0.2-0.5-0.5V19c0-0.3,0.2-0.5,0.5-0.5h8.2V20c0,1,0.7,1.6,1.6,1.6h26.8c1,0,1.6-0.7,1.6-1.6v-1.5h8.2
		c0.3,0,0.5,0.2,0.5,0.5v42.3H56c-7.4,0-13.5,6.1-13.5,13.5V76L10.3,75.9z M56,84.9c-5.6,0-10.2-4.6-10.2-10.2S50.4,64.5,56,64.5
		s10.2,4.6,10.2,10.2S61.6,84.9,56,84.9z M100.2,102h9.9v8.1h-9.9V102z M100.2,70.6h9.9v8.1h-9.9V70.6z M100.2,39.4h9.9v8.1h-9.9
		V39.4z"/>
	<path class="st0" d="M59.4,70.1l-5.8,5.8l-1.3-1.3c-1.5-1.5-3.8,0.8-2.3,2.3l2.5,2.5c0.7,0.7,1.6,0.7,2.3,0l6.9-6.9
		C63.4,70.9,61.1,68.5,59.4,70.1L59.4,70.1z"/>
</g>
</svg>
