<svg width="120" height="152" viewBox="0 0 120 152" fill="none" xmlns="http://www.w3.org/2000/svg">
<path d="M59.2933 99.1086C32.3457 99.1086 10.5 77.2586 10.5 50.3043C10.5 23.3502 32.357 1.5 59.2933 1.5C86.2295 1.5 108.086 23.3502 108.086 50.3043C108.086 77.2586 86.2408 99.1086 59.2933 99.1086Z" fill="white" stroke="white" stroke-width="3"/>
<path d="M0 114.212H3.61677V117.896L3.56279 119.826L3.65725 119.866C4.35901 119.124 5.22272 118.436 6.70721 118.436C9.46027 118.436 11.1067 120.744 11.1067 123.753C11.1067 127.235 9.48726 129.489 5.66807 129.489C4.54795 129.489 3.06346 129.367 1.56547 128.612L1.03915 129.273H0L0 114.212ZM3.61677 122.161V126.587C4.08911 126.817 4.65591 126.992 5.22272 126.992C6.78818 126.992 7.43596 125.737 7.43596 123.942C7.43596 122.336 6.84217 121.014 5.60059 121.014C4.81786 121.014 4.1161 121.445 3.63026 122.174L3.61677 122.161Z" fill="white"/>
<path d="M12.9287 114.212H16.532V129.273H12.9287V114.212Z" fill="white"/>
<path d="M29.3795 129.273H26.3836L25.9787 128.045L25.8168 128.004C24.8451 128.962 23.563 129.489 22.281 129.489C20.2297 129.489 18.6372 128.099 18.6372 125.575V118.652H22.254V124.968C22.254 126.236 22.8208 126.925 23.7385 126.925C24.5077 126.925 25.3039 126.398 25.7493 125.845V118.652H29.366V129.273H29.3795Z" fill="white"/>
<path d="M41.6332 128.679C40.3646 129.192 38.7317 129.502 37.1527 129.502C34.3322 129.502 31.2822 128.233 31.2822 124.144C31.2822 119.65 34.1433 118.449 36.8828 118.449C39.8788 118.449 41.8896 119.92 41.8896 123.24C41.8896 123.51 41.8761 123.901 41.8491 124.144H34.9665V124.455C34.9665 126.074 35.9246 126.924 37.7195 126.924C38.7317 126.924 40.0272 126.708 41.2823 126.304L41.6332 128.692V128.679ZM38.5967 122.633C38.5967 121.162 37.9355 120.635 36.9773 120.635C36.0191 120.635 35.2229 121.243 35.0339 122.633H38.5967Z" fill="white"/>
<path d="M48.7856 118.652H51.9301L52.2405 120.055H52.4024C53.5225 118.895 54.6696 118.436 55.9247 118.436C57.3552 118.436 58.3944 119.016 58.9612 120.163H59.1231C60.2702 118.895 61.6333 118.436 62.8209 118.436C65.1691 118.436 66.3836 119.867 66.3836 122.525V129.273H62.7669V123.146C62.7669 121.81 62.2945 121.23 61.3768 121.23C60.6076 121.23 59.8249 121.634 59.4065 122.404V129.273H55.8032V123.146C55.8032 121.81 55.3579 121.23 54.4402 121.23C53.671 121.23 52.8613 121.702 52.4294 122.458V129.259H48.8126V118.638L48.7856 118.652Z" fill="white"/>
<path d="M79.6904 128.962C78.5433 129.34 77.5986 129.488 76.8969 129.488C75.6418 129.488 75.102 129.043 74.8861 128.044L74.7646 128.004C73.6175 129.016 72.6188 129.488 71.3233 129.488C69.6229 129.488 68.0034 128.233 68.0034 126.358C68.0034 124.887 68.8671 124.279 70.4731 123.874C71.8226 123.523 73.6985 123.173 74.7511 122.916V122.471C74.7511 121.499 74.3598 120.932 73.0237 120.932C71.8496 120.932 70.5136 121.283 69.191 121.85L68.5297 119.718C70.0547 118.895 72.052 118.449 73.3611 118.449C75.5339 118.449 78.3949 118.881 78.3949 122.552V126.344C78.3949 126.735 78.4758 126.965 78.9212 126.965C79.2181 126.965 79.4745 126.924 79.542 126.924L79.7039 128.962H79.6904ZM72.9967 127.235C73.523 127.235 74.2113 126.924 74.7376 126.317V124.441C74.0359 124.603 73.1182 124.833 72.5514 125.008C72.0655 125.143 71.6877 125.359 71.6877 125.966C71.6877 126.627 72.241 127.235 72.9967 127.235Z" fill="white"/>
<path d="M81.1343 129.273V118.652H84.1303L84.5216 120.487H84.6836C85.8577 119.178 86.9103 118.436 87.909 118.436C88.3813 118.436 88.9616 118.665 89.2585 119.097L88.4218 122.107C88.1249 121.945 87.8415 121.877 87.4636 121.877C86.5594 121.877 85.3853 123.011 84.7645 123.632V129.259H81.1478L81.1343 129.273Z" fill="white"/>
<path d="M92.2682 112.93C93.4558 112.93 94.279 113.699 94.279 114.792C94.279 115.885 93.4558 116.654 92.2682 116.654C91.0806 116.654 90.2979 115.912 90.2979 114.792C90.2979 113.672 91.0806 112.93 92.2682 112.93ZM90.4733 118.665H94.0901V129.286H90.4733V118.665Z" fill="white"/>
<path d="M96.2762 118.652H99.4206L99.731 120.055H99.893C100.973 118.935 102.201 118.436 103.469 118.436C105.655 118.436 106.992 119.772 106.992 122.498V129.273H103.348V123.105C103.348 121.796 102.862 121.23 101.958 121.23C101.135 121.23 100.352 121.702 99.8795 122.444V129.273H96.2627V118.652H96.2762Z" fill="white"/>
<path d="M119.057 128.679C117.788 129.192 116.155 129.502 114.576 129.502C111.756 129.502 108.706 128.233 108.706 124.144C108.706 119.65 111.567 118.449 114.306 118.449C117.302 118.449 119.313 119.92 119.313 123.24C119.313 123.51 119.299 123.901 119.272 124.144H112.39V124.455C112.39 126.074 113.348 126.924 115.143 126.924C116.155 126.924 117.451 126.708 118.706 126.304L119.057 128.692V128.679ZM116.02 122.633C116.02 121.162 115.359 120.635 114.401 120.635C113.442 120.635 112.646 121.243 112.457 122.633H116.02Z" fill="white"/>
<path d="M30.0948 151C28.6238 151 26.8019 150.609 25.9922 150.136L26.3836 147.829C27.3687 148.22 28.9207 148.625 30.2432 148.625C31.1204 148.625 31.8087 148.436 31.8087 147.667C31.8087 146.155 26.1541 147.1 26.1541 143.308C26.1541 140.865 28.3809 139.947 31.08 139.947C32.6049 139.947 34.0894 140.298 34.7912 140.568L34.3054 142.862C33.5226 142.565 32.2271 142.295 31.1339 142.295C30.2567 142.295 29.6899 142.552 29.6899 143.159C29.6899 144.563 35.1826 143.726 35.1826 147.559C35.1826 150.028 32.7399 151 30.0948 151Z" fill="white"/>
<path d="M47.5441 150.798H44.5481L44.1433 149.57L43.9813 149.529C43.0096 150.487 41.7276 151.014 40.4455 151.014C38.3942 151.014 36.8018 149.624 36.8018 147.1V140.177H40.4185V146.493C40.4185 147.761 40.9853 148.449 41.903 148.449C42.6723 148.449 43.4685 147.923 43.9138 147.37V140.177H47.5306V150.798H47.5441Z" fill="white"/>
<path d="M49.8521 135.723H53.4688V139.407L53.4148 141.337L53.5093 141.378C54.2111 140.635 55.0748 139.947 56.5593 139.947C59.3123 139.947 60.9588 142.255 60.9588 145.264C60.9588 148.746 59.3393 151 55.5201 151C54.4 151 52.9155 150.878 51.4175 150.123L50.8912 150.784H49.8521V135.723ZM53.4688 143.672V148.098C53.9412 148.328 54.508 148.503 55.0748 148.503C56.6402 148.503 57.288 147.248 57.288 145.453C57.288 143.847 56.6942 142.525 55.4526 142.525C54.6699 142.525 53.9682 142.957 53.4823 143.685L53.4688 143.672Z" fill="white"/>
<path d="M61.8496 140.163H63.577L64.2788 137.343H67.0993V140.163H70.3517L70.1493 142.565H67.1128V146.668C67.1128 147.464 67.3152 148.099 68.2464 148.099C68.7997 148.099 69.5555 147.937 70.2842 147.626L70.7566 150.312C69.353 150.784 68.1115 151 66.9644 151C64.5622 151 63.523 149.813 63.523 147.167V142.565H61.8631V140.163H61.8496Z" fill="white"/>
<path d="M82.1195 150.19C80.851 150.703 79.218 151.013 77.6391 151.013C74.8185 151.013 71.7686 149.745 71.7686 145.656C71.7686 141.162 74.6296 139.96 77.3691 139.96C80.3651 139.96 82.3759 141.431 82.3759 144.751C82.3759 145.021 82.3624 145.413 82.3354 145.656H75.4528V145.966C75.4528 147.585 76.411 148.436 78.2059 148.436C79.218 148.436 80.5136 148.22 81.7686 147.815L82.1195 150.203V150.19ZM79.0831 144.144C79.0831 142.673 78.4218 142.147 77.4636 142.147C76.5054 142.147 75.7092 142.754 75.5203 144.144H79.0831Z" fill="white"/>
<path d="M83.793 145.629C83.793 142.592 84.8321 139.96 89.0967 139.96C90.3247 139.96 91.8767 140.257 92.8079 140.689L92.2951 143.307C91.6068 142.997 90.5002 142.727 89.7309 142.727C88.179 142.727 87.4637 143.631 87.4637 145.521C87.4637 147.086 88.0575 148.233 89.9334 148.233C90.8511 148.233 91.8497 147.977 92.5785 147.707L93.0238 150.271C92.1871 150.703 90.6621 151.013 89.1506 151.013C85.8443 151.013 83.793 149.218 83.793 145.629Z" fill="white"/>
<path d="M33.0178 44.2367C41.9318 44.2367 47.4788 41.1665 53.903 37.6061C61.8752 33.1943 70.8924 28.2019 87.3012 28.2019C92.4999 28.2019 97.5439 28.8469 102.381 30.0337C94.7188 14.0119 78.3873 2.95654 59.45 2.95654C37.3393 2.95654 18.7504 18.0625 13.4355 38.5091C19.0987 42.1211 25.8067 44.2367 33.0178 44.2367Z" fill="#55C0E9"/>
<path d="M32.9791 61.7938C58.9469 61.7938 63.8876 45.7591 87.2625 45.7591C94.3317 45.7591 101.014 47.3845 106.987 50.2612C106.974 46.8169 106.574 43.4628 105.864 40.2249C100.072 38.1222 93.8286 36.9741 87.3141 36.9741C59.9144 36.9741 57.6569 53.0218 32.9791 53.0218C25.4067 53.0218 18.2601 51.1513 11.9778 47.8618C11.9262 48.739 11.9004 49.6291 11.9004 50.5192C11.9004 52.9831 12.1068 55.4083 12.468 57.769C18.8019 60.3619 25.7292 61.8067 32.9791 61.8067" fill="#25215D"/>
<path d="M32.9795 70.7978C63.3463 70.7978 67.5904 54.763 87.263 54.763C94.1258 54.763 100.55 56.6722 106.045 59.9875C106.665 56.9173 107 53.7439 107 50.506C107 50.4286 107 50.3383 107 50.2609C101.027 47.3713 94.3322 45.7588 87.2758 45.7588C63.901 45.7588 58.9602 61.7935 32.9924 61.7935C25.7297 61.7935 18.8024 60.3487 12.4556 57.7558C13.0232 61.4194 14.0036 64.9541 15.3581 68.2952C20.9567 69.9206 26.8649 70.8107 32.9924 70.8107" fill="#F05523"/>
<path d="M87.2624 54.7637C67.5898 54.7637 63.3457 70.7984 32.979 70.7984C26.8772 70.7984 20.9819 69.9083 15.3833 68.2958C22.4267 85.7238 39.4806 98.0433 59.437 98.0433C82.4507 98.0433 101.633 81.6861 106.032 59.9753C100.549 56.66 94.1252 54.7637 87.2624 54.7637Z" fill="#25215D"/>
</svg>
